<svg xmlns="http://www.w3.org/2000/svg" xmlns:xlink="http://www.w3.org/1999/xlink" width="50" height="50" viewBox="0 0 50 50">
  <defs>
    <clipPath id="clip-path">
      <rect id="Rectangle_91" data-name="Rectangle 91" width="25.758" height="24.62" fill="#fff"/>
    </clipPath>
  </defs>
  <g id="Group_1974" data-name="Group 1974" transform="translate(-525 -1655)">
    <rect id="Rectangle_517" data-name="Rectangle 517" width="50" height="50" transform="translate(525 1655)" fill="#0a66c2"/>
    <g id="Group_1973" data-name="Group 1973" transform="translate(537.316 1666.296)">
      <g id="Group_175" data-name="Group 175" transform="translate(0)">
        <g id="Group_174" data-name="Group 174" clip-path="url(#clip-path)">
          <path id="Path_139" data-name="Path 139" d="M3.124,0a2.878,2.878,0,1,0-.072,5.74h.036A2.879,2.879,0,1,0,3.124,0" transform="translate(0)" fill="#fff"/>
          <rect id="Rectangle_90" data-name="Rectangle 90" width="5.522" height="16.612" transform="translate(0.326 8.008)" fill="#fff"/>
          <path id="Path_140" data-name="Path 140" d="M231.5,189.108c-2.979,0-4.976,2.8-4.976,2.8V189.5H221V206.11h5.522v-9.277a3.785,3.785,0,0,1,.182-1.348,3.023,3.023,0,0,1,2.833-2.019c2,0,2.8,1.523,2.8,3.757v8.887h5.521v-9.525c0-5.1-2.724-7.477-6.357-7.477" transform="translate(-212.096 -181.49)" fill="#fff"/>
        </g>
      </g>
    </g>
  </g>
</svg>
