<svg xmlns="http://www.w3.org/2000/svg" width="24.502" height="24.502" viewBox="0 0 24.502 24.502">
  <g id="_02_User" data-name="02 User" transform="translate(0.006 0.003)">
    <path id="Path_462" data-name="Path 462" d="M1.191,24.5a1.2,1.2,0,0,1-.846-2.042L22.453.347a1.2,1.2,0,0,1,1.692,1.692L2.037,24.148a1.193,1.193,0,0,1-.846.35Z" transform="translate(0 0)"/>
    <path id="Path_463" data-name="Path 463" d="M23.3,24.5a1.193,1.193,0,0,1-.846-.35L.347,2.039A1.2,1.2,0,0,1,2.039.347L24.148,22.456A1.2,1.2,0,0,1,23.3,24.5Z" transform="translate(-0.002)"/>
  </g>
</svg>
