<svg xmlns="http://www.w3.org/2000/svg" width="35.485" height="27" viewBox="0 0 35.485 27">
  <g id="Group_1751" data-name="Group 1751" transform="translate(-1010 -7524)">
    <g id="Group_1686" data-name="Group 1686" transform="translate(2029.485 15236) rotate(180)">
      <path id="quotes" d="M20.409,7.384a11.533,11.533,0,0,1,3.176,8.537c0,6.949-4.963,13.1-11.912,16.28L9.887,29.619c6.552-3.574,7.941-8.14,8.338-11.118a5.887,5.887,0,0,1-3.772.6A7.077,7.077,0,0,1,8.1,12.149a7.833,7.833,0,0,1,1.985-4.963A6.585,6.585,0,0,1,15.049,5.2a7.808,7.808,0,0,1,5.36,2.184Z" transform="translate(975.9 7679.8)"/>
      <path id="quotes-2" data-name="quotes" d="M20.409,7.384a11.533,11.533,0,0,1,3.176,8.537c0,6.949-4.963,13.1-11.912,16.28L9.887,29.619c6.552-3.574,7.941-8.14,8.338-11.118a5.887,5.887,0,0,1-3.772.6A7.077,7.077,0,0,1,8.1,12.149a7.833,7.833,0,0,1,1.985-4.963A6.585,6.585,0,0,1,15.049,5.2a7.808,7.808,0,0,1,5.36,2.184Z" transform="translate(995.9 7679.8)"/>
    </g>
  </g>
</svg>
